<svg xmlns="http://www.w3.org/2000/svg" xmlns:xlink="http://www.w3.org/1999/xlink" version="1.1" width="122.879" height="88.855" enable-background="new 0 0 122.879 88.855" xml:space="preserve" style=""><rect id="backgroundrect" width="100%" height="100%" x="0" y="0" fill="none" stroke="none"/><g class="currentLayer" style=""><title>Layer 1</title><g id="svg_1" class="" fill-opacity="1" fill="#041c36"><path d="M3.298,0 h108.784 c1.939,0 3.701,0.794 4.977,2.069 c1.2770000000000001,1.2770000000000001 2.07,3.042 2.07,4.979 v74.759 c0,1.461 -0.451,2.822 -1.221,3.951 c-0.14100000000000001,0.3650000000000001 -0.3610000000000001,0.7050000000000002 -0.6620000000000003,0.994 c-0.201,0.18900000000000006 -0.4220000000000001,0.3440000000000002 -0.6560000000000002,0.461 c-1.225,1.021 -2.799,1.6430000000000002 -4.508,1.6430000000000002 H3.298 c-1.937,0 -3.701,-0.793 -4.979,-2.07 C-2.956,85.51 -3.75,83.748 -3.75,81.807 V7.048 c0,-1.941 0.792,-3.704 2.068,-4.979 C-0.4059999999999996,0.792 1.3570000000000002,0 3.298,0 L3.298,0 zM1.6559999999999997,78.842 l38.124,-38.22 L1.6559999999999997,9.538 V78.842 L1.6559999999999997,78.842 zM43.979,44.045 L4.6739999999999995,83.449 h105.701 L72.813,44.051 L60.43000000000001,54.602 l0,0 c-0.971,0.8300000000000002 -2.425,0.8770000000000002 -3.453,0.04300000000000002 L43.979,44.045 L43.979,44.045 zM76.924,40.549 l36.799,38.598 V9.198 L76.924,40.549 L76.924,40.549 zM5.117000000000001,5.406 l53.521,43.639 l51.223,-43.639 H5.117000000000001 L5.117000000000001,5.406 z" id="svg_2" fill="#041c36"/></g></g></svg>