<svg xmlns="http://www.w3.org/2000/svg" data-name="Layer 1" width="122.88" height="122.31"><rect id="backgroundrect" width="100%" height="100%" x="0" y="0" fill="none" stroke="none"/><title>mobile-outline</title><g class="currentLayer" style=""><title>Layer 1</title><path d="M52.07,69.20422530174255 A72.28,72.28 0 0 0 61.58,77.70422530174255 a83.47,83.47 0 0 0 11.7,7.28 l0.17,-0.12000000000000002 c0.3000000000000001,-0.24000000000000005 0.6400000000000002,-0.55 1,-0.9 s0.6000000000000002,-0.6500000000000002 0.92,-1 l1.13,-1.47 a2.93,2.93 0 0 1 0.3400000000000002,-0.4300000000000001 c4.3100000000000005,-5.68 9.68,-12.51 18.32,-8.51 a4.1,4.1 0 0 1 0.52,0.26 c7,4.14 14.18,8.15 21.24,12.21 a3.39,3.39 0 0 1 0.5,0.3200000000000001 l0,0 a12,12 0 0 1 4.07,4.72 a14.73,14.73 0 0 1 1.36,6.26 v0 a21.71,21.71 0 0 1 -0.9400000000000002,6.1 a29.07,29.07 0 0 1 -2.6,6.06 a23.51,23.51 0 0 1 -5.19,6.3 a26.81,26.81 0 0 1 -6.53,4.11 l-0.05000000000000002,0 a39.78,39.78 0 0 1 -6.66,2.3200000000000003 a64.53,64.53 0 0 1 -6.73,1.34 a44.49,44.49 0 0 1 -10.47,0.3200000000000001 a49.29,49.29 0 0 1 -10.17,-2 a68.93,68.93 0 0 1 -9.89,-4 a114.94,114.94 0 0 1 -10.16,-5.67 l-0.8400000000000002,-0.52 c-3.07,-1.9100000000000001 -6.38,-4 -9.73,-6.47 l0,0 a129.47,129.47 0 0 1 -19,-17.67 A116.79,116.79 0 0 1 9.39,66.09422530174255 a77.53,77.53 0 0 1 -8,-20.6 A52.13,52.13 0 0 1 0.5900000000000001,25.924225301742553 A35.51,35.51 0 0 1 4.21,14.864225301742554 a26.75,26.75 0 0 1 6.84,-8.37 A25.64,25.64 0 0 1 20.56,1.7042253017425537 A32.45,32.45 0 0 1 31.799999999999997,0.8542253017425536 a5.9,5.9 0 0 1 2.8200000000000003,0.93 a6.07,6.07 0 0 1 2,2.13 L50.08,26.704225301742554 a11.34,11.34 0 0 1 2.25,5.25 a10.56,10.56 0 0 1 -0.8200000000000002,5.59 v0 a14.27,14.27 0 0 1 -2.6,3.95 a24.06,24.06 0 0 1 -3.52,3.12 c-0.7300000000000002,0.6300000000000002 -1.6500000000000004,1.3 -2.6100000000000003,2 l-0.09000000000000004,0.07 a27.86,27.86 0 0 0 -3.23,2.59 a3.06,3.06 0 0 0 -0.9,1.2 c0,0.11000000000000003 0.09000000000000004,0 0.19000000000000006,0.17 l0.3400000000000002,0.53 c1.13,1.77 3.31,5.15 5.8,8.74 a91.46,91.46 0 0 0 7.18,9.31 zm5.45,13.9 a80.64,80.64 0 0 1 -10.38,-9.25 a94.48,94.48 0 0 1 -7.82,-10.1 c-2.48,-3.58 -4.76,-7.11 -5.94,-9 l-0.2900000000000001,-0.4300000000000001 a6,6 0 0 1 -1.31,-4.44 a8.81,8.81 0 0 1 2.87,-5.47 a33.42,33.42 0 0 1 4.05,-3.2800000000000002 l0,0 c0.8,-0.5800000000000002 1.56,-1.1400000000000001 2.25,-1.73 l0.21000000000000005,-0.16000000000000006 a16.57,16.57 0 0 0 2.67,-2.33 a7.8100000000000005,7.8100000000000005 0 0 0 1.4,-2.09 a3.81,3.81 0 0 0 0.3300000000000001,-2 a4.67,4.67 0 0 0 -1,-2.11 a2.51,2.51 0 0 1 -0.3200000000000001,-0.46 L30.92,7.564225301742554 a25.43,25.43 0 0 0 -8.61,0.6900000000000004 a18.67,18.67 0 0 0 -7,3.5300000000000002 a20.16,20.16 0 0 0 -5.11,6.26 a28.8,28.8 0 0 0 -2.9,8.94 a45.29,45.29 0 0 0 0.7000000000000002,17 a71.09,71.09 0 0 0 7.36,18.8 A108.83,108.83 0 0 0 29,81.97422530174255 A122.72,122.72 0 0 0 47,98.70422530174255 c3,2.27 6.26,4.28 9.26,6.14 l0.8500000000000002,0.54 A108.32,108.32 0 0 0 66.62,110.70422530174255 a60.6,60.6 0 0 0 8.91,3.59 a42.22,42.22 0 0 0 8.77,1.7600000000000002 a38.12,38.12 0 0 0 8.9,-0.28 a56,56 0 0 0 6,-1.18 a32.87,32.87 0 0 0 5.53,-1.92 l0.09000000000000004,0 a20.48,20.48 0 0 0 4.92,-3.08 a16.86,16.86 0 0 0 3.7,-4.49 a22.54,22.54 0 0 0 2,-4.63 a15.34,15.34 0 0 0 0.6600000000000003,-4.19 a7.62,7.62 0 0 0 -0.6900000000000004,-3.34 a5.25,5.25 0 0 0 -1.81,-2.1 c-5.41,-3.87 -14.91,-8.59 -21,-12.11 l-0.2900000000000001,-0.15000000000000005 l0.12000000000000002,0.06000000000000002 l-0.12000000000000002,-0.06000000000000002 c-3.75,-1.6700000000000004 -7.23,2.75 -10.06,6.48 l-0.17,0.24000000000000005 c-0.4900000000000001,0.6500000000000002 -1,1.28 -1.4,1.82 s-1,1.2 -1.4,1.6 a18.66,18.66 0 0 1 -1.71,1.51 a9.39,9.39 0 0 1 -2.21,1.24 a5.59,5.59 0 0 1 -2.35,0.3800000000000001 a6,6 0 0 1 -2,-0.4900000000000001 l-0.3200000000000001,-0.14 A91.42,91.42 0 0 1 57.52,83.10422530174256 z" id="svg_1" class="" fill="#041c36" fill-opacity="1"/></g></svg>